<svg width="172" height="63" viewBox="0 0 172 63" fill="none" xmlns="http://www.w3.org/2000/svg">
<g clip-path="url(#clip0_1_31)">
<path d="M92.7272 0.818848H85.1473C77.8832 0.818848 73.7143 3.77985 73.7143 11.4028V25.5778C73.7143 32.1928 77.5042 35.2168 82.368 37.4848L82.3048 38.4928L77.1884 37.7998L72.451 62.0548H78.8307L82.0522 41.8948C82.368 39.8158 83.8208 38.6818 86.4106 39.8788V62.0548H92.7272V0.818848ZM80.0309 30.6808V13.5448C80.0309 8.06385 81.5468 6.55185 85.7789 6.55185H86.4737V37.7368L84.8946 37.0438C81.0415 35.4688 80.0309 33.5788 80.0309 30.6808ZM106.245 29.0428H113.382V0.818848H119.699V62.1178H113.382V30.7438H106.245V62.1808H99.928V0.818848H106.245V29.0428ZM133.216 7.62285L131.195 27.4678L132.016 27.6568L139.786 0.881848H147.365V6.48885L145.534 6.99285C140.923 8.25285 139.28 13.4818 136.122 21.7978C135.238 24.0028 134.543 26.2708 133.974 28.6018L134.543 29.1688L141.87 28.4758L147.429 62.1808H140.607L137.512 38.4298C136.69 31.8778 135.806 30.5548 133.532 30.9328C133.343 32.0668 133.279 33.1378 133.279 34.2719V62.1808H126.963V0.818848H133.279L133.216 7.62285ZM147.744 62.1808L157.03 9.32385L153.429 0.818848H161.767L172.063 62.1178H164.989L162.778 44.9188H156.461L155.387 62.1178H147.744V62.1808ZM156.588 43.2808H162.462L160.946 31.1218L159.367 14.3008H158.419L156.588 43.2808ZM61.1443 0.818848H52.8065L56.4069 9.32385L47.1847 62.1808H54.7646L57.8597 14.3008H58.8072L60.3863 31.1218L64.3658 62.1808H71.4403L61.1443 0.818848ZM38.7205 30.2398V52.4788C38.7205 55.4398 38.2152 57.2668 36.0044 57.2668C33.9831 57.2668 32.2776 56.3218 32.2776 50.2738V30.9958C29.6247 31.8148 27.0981 33.0748 25.9611 35.2798V36.2248V36.2878V36.5398C26.0242 36.5398 26.0242 36.5398 26.0874 36.5398H25.9611V53.1088C25.9611 60.3538 29.1825 62.9368 34.9938 62.9368C40.4892 62.9368 45.0371 59.8498 45.0371 51.5968V32.0668C43.1421 30.9328 40.9945 30.3028 38.7205 30.2398ZM19.7708 0.818848V62.1178H13.4543V2.51985H6.31656V62.1808H0V0.818848H19.7708Z" fill="#0D6032"/>
<path d="M32.3408 24.444V10.521C32.3408 7.56 32.9093 5.733 35.4359 5.733C37.1414 5.733 38.7205 6.678 38.7205 12.726V25.767C40.5523 26.397 42.321 27.279 43.9633 28.413C44.1528 28.539 44.3423 28.602 44.5318 28.728L45.0371 29.106V9.828C45.0371 2.583 41.942 0 36.0676 0C30.5722 0 26.0242 3.087 26.0242 11.34V24.948C28.1087 24.507 30.1932 24.318 32.3408 24.444Z" fill="#0D6032"/>
</g>
<defs>
<clipPath id="clip0_1_31">
<rect width="172" height="63" fill="white"/>
</clipPath>
</defs>
</svg>
