<svg width="34" height="34" viewBox="0 0 34 34" fill="none" xmlns="http://www.w3.org/2000/svg">
<circle cx="17" cy="17" r="17" fill="#0D6032"/>
<path fill-rule="evenodd" clip-rule="evenodd" d="M24 16.819C24 20.5861 20.9233 23.6381 17.1268 23.6381C15.9689 23.6398 14.8275 23.3487 13.8047 22.7892L10 24L11.2402 20.3396C10.5954 19.2853 10.2536 18.0657 10.2545 16.8199C10.2545 13.0546 13.3312 10 17.1268 10C20.9241 10 24 13.0546 24 16.819ZM17.1268 11.0867C13.9406 11.0867 11.3481 13.6587 11.3481 16.8199C11.3481 18.0744 11.7574 19.2372 12.45 20.1822L11.7278 22.3119L13.948 21.6037C14.8975 22.2262 16.0011 22.5558 17.1268 22.5523C20.3131 22.5523 22.9055 19.982 22.9055 16.8208C22.9055 13.6587 20.3139 11.0867 17.1268 11.0867ZM20.4992 19.1856C20.3592 19.5764 19.6715 19.9514 19.3627 19.9803C19.0531 20.0091 19.0531 20.2303 17.3401 19.5615C15.628 18.8927 14.5467 17.1504 14.4619 17.0393C14.3779 16.9274 13.7742 16.1328 13.7742 15.3092C13.7742 14.4883 14.2091 14.0844 14.3639 13.9157C14.48 13.7863 14.6422 13.7111 14.8135 13.7068C14.9255 13.7068 15.0384 13.7225 15.1364 13.7225C15.2352 13.7225 15.3752 13.6648 15.5152 13.9988C15.6552 14.3336 15.9928 15.1571 16.034 15.241C16.0768 15.3241 16.1048 15.422 16.0488 15.5339C15.9928 15.6449 15.9648 15.7157 15.88 15.8128C15.796 15.9107 15.7038 16.0305 15.628 16.1057C15.544 16.1878 15.4559 16.2796 15.5539 16.4457C15.8084 16.8776 16.1246 17.2684 16.4911 17.6032C17.1342 18.1723 17.6778 18.3489 17.8458 18.432C18.0146 18.5168 18.1126 18.5019 18.2106 18.3918C18.3094 18.2799 18.6322 17.9013 18.7442 17.7352C18.8562 17.5674 18.9691 17.5954 19.1239 17.6513C19.2779 17.709 20.1064 18.112 20.2744 18.1951C20.4432 18.2799 20.5552 18.3218 20.598 18.3918C20.64 18.4608 20.64 18.7939 20.4992 19.1856Z" fill="white"/>
</svg>
