<svg width="1920" height="1303" viewBox="0 0 1920 1303" fill="none" xmlns="http://www.w3.org/2000/svg">
<path d="M412.533 1015.08C408.834 1010.5 402.118 1009.78 397.533 1013.48C392.948 1017.17 392.23 1023.89 395.929 1028.48C399.628 1033.06 406.343 1033.78 410.928 1030.08C415.513 1026.38 416.231 1019.67 412.533 1015.08ZM740.342 927.278C738.152 925.671 735.943 924.13 733.717 922.652L731.505 925.985C733.679 927.428 735.836 928.933 737.976 930.503L740.342 927.278ZM719.93 914.426C715.143 911.875 710.291 909.594 705.383 907.569L703.857 911.266C708.645 913.242 713.379 915.467 718.049 917.956L719.93 914.426ZM690.231 902.171C685.079 900.615 679.879 899.317 674.643 898.265L673.855 902.186C678.97 903.214 684.046 904.481 689.074 906L690.231 902.171ZM658.764 895.824C653.446 895.25 648.101 894.91 642.742 894.79L642.653 898.789C647.902 898.906 653.133 899.24 658.335 899.801L658.764 895.824ZM626.697 895.074C621.376 895.376 616.051 895.881 610.732 896.576L611.25 900.542C616.476 899.86 621.704 899.364 626.924 899.068L626.697 895.074ZM594.927 899.188C589.709 900.23 584.505 901.443 579.327 902.815L580.351 906.681C585.452 905.33 590.575 904.136 595.71 903.111L594.927 899.188ZM563.977 907.361C558.919 909.016 553.896 910.814 548.915 912.743L550.36 916.473C555.276 914.569 560.233 912.795 565.221 911.163L563.977 907.361ZM534.153 918.895C529.285 921.066 524.468 923.356 519.712 925.754L521.513 929.325C526.214 926.956 530.973 924.693 535.782 922.548L534.153 918.895ZM505.607 933.272C500.947 935.891 496.358 938.608 491.849 941.41L493.961 944.808C498.42 942.036 502.959 939.349 507.567 936.758L505.607 933.272ZM478.465 950.133C474.037 953.157 469.702 956.257 465.47 959.422L467.866 962.625C472.052 959.495 476.34 956.428 480.721 953.437L478.465 950.133ZM452.872 969.276C448.701 972.688 444.653 976.156 440.738 979.665L443.408 982.644C447.277 979.175 451.28 975.746 455.405 972.372L452.872 969.276ZM429.087 990.62C425.218 994.439 421.515 998.289 417.991 1002.15L420.946 1004.85C424.422 1001.04 428.077 997.238 431.897 993.467L429.087 990.62ZM407.553 1014.29C405.856 1016.38 404.216 1018.48 402.635 1020.57L405.826 1022.98C407.38 1020.93 408.993 1018.86 410.663 1016.8L407.553 1014.29Z" fill="#0D6032"/>
<path d="M1495.68 1015.08C1499.37 1010.5 1506.09 1009.78 1510.68 1013.48C1515.26 1017.17 1515.98 1023.89 1512.28 1028.48C1508.58 1033.06 1501.87 1033.78 1497.28 1030.08C1492.7 1026.38 1491.98 1019.67 1495.68 1015.08ZM1167.87 927.278C1170.06 925.671 1172.27 924.13 1174.49 922.652L1176.7 925.985C1174.53 927.428 1172.37 928.933 1170.23 930.503L1167.87 927.278ZM1188.28 914.426C1193.07 911.875 1197.92 909.594 1202.83 907.569L1204.35 911.266C1199.56 913.242 1194.83 915.467 1190.16 917.956L1188.28 914.426ZM1217.98 902.171C1223.13 900.615 1228.33 899.317 1233.57 898.265L1234.35 902.186C1229.24 903.214 1224.16 904.481 1219.13 906L1217.98 902.171ZM1249.44 895.824C1254.76 895.25 1260.11 894.91 1265.47 894.79L1265.56 898.789C1260.31 898.906 1255.08 899.24 1249.87 899.801L1249.44 895.824ZM1281.51 895.074C1286.83 895.376 1292.16 895.881 1297.48 896.576L1296.96 900.542C1291.73 899.86 1286.5 899.364 1281.28 899.068L1281.51 895.074ZM1313.28 899.188C1318.5 900.23 1323.7 901.443 1328.88 902.815L1327.86 906.681C1322.76 905.33 1317.63 904.136 1312.5 903.111L1313.28 899.188ZM1344.23 907.361C1349.29 909.016 1354.31 910.814 1359.29 912.743L1357.85 916.473C1352.93 914.569 1347.98 912.795 1342.99 911.163L1344.23 907.361ZM1374.06 918.895C1378.92 921.066 1383.74 923.356 1388.5 925.754L1386.7 929.325C1381.99 926.956 1377.23 924.693 1372.43 922.548L1374.06 918.895ZM1402.6 933.272C1407.26 935.891 1411.85 938.608 1416.36 941.41L1414.25 944.808C1409.79 942.036 1405.25 939.349 1400.64 936.758L1402.6 933.272ZM1429.74 950.133C1434.17 953.157 1438.51 956.257 1442.74 959.422L1440.34 962.625C1436.16 959.495 1431.87 956.428 1427.49 953.437L1429.74 950.133ZM1455.34 969.276C1459.51 972.688 1463.56 976.156 1467.47 979.665L1464.8 982.644C1460.93 979.175 1456.93 975.746 1452.8 972.372L1455.34 969.276ZM1479.12 990.62C1482.99 994.439 1486.69 998.289 1490.22 1002.15L1487.26 1004.85C1483.79 1001.04 1480.13 997.238 1476.31 993.467L1479.12 990.62ZM1500.66 1014.29C1502.35 1016.38 1503.99 1018.48 1505.57 1020.57L1502.38 1022.98C1500.83 1020.93 1499.22 1018.86 1497.55 1016.8L1500.66 1014.29Z" fill="#0D6032"/>
<path d="M720.668 1015.42C716.969 1010.84 710.254 1010.12 705.669 1013.82C701.084 1017.52 700.366 1024.23 704.064 1028.82C707.763 1033.4 714.479 1034.12 719.064 1030.42C723.649 1026.72 724.367 1020.01 720.668 1015.42ZM786.522 955.452C783.606 956.169 780.862 956.951 778.26 957.809L779.513 961.608C782.007 960.785 784.651 960.032 787.478 959.336L786.522 955.452ZM762.52 964.91C757.653 967.83 753.22 971.288 748.832 975.413L751.572 978.327C755.787 974.364 759.996 971.09 764.578 968.34L762.52 964.91ZM737.158 987.864C733.8 991.797 730.278 996.156 726.449 1000.99L729.584 1003.47C733.403 998.654 736.889 994.339 740.2 990.461L737.158 987.864ZM716.022 1014.25C714.345 1016.38 712.607 1018.59 710.798 1020.88L713.935 1023.36C715.748 1021.07 717.489 1018.86 719.167 1016.72L716.022 1014.25Z" fill="#0D6032"/>
<path d="M1187.54 1015.42C1191.24 1010.84 1197.95 1010.12 1202.54 1013.82C1207.12 1017.52 1207.84 1024.23 1204.14 1028.82C1200.45 1033.4 1193.73 1034.12 1189.14 1030.42C1184.56 1026.72 1183.84 1020.01 1187.54 1015.42ZM1121.69 955.452C1124.6 956.169 1127.35 956.951 1129.95 957.809L1128.7 961.608C1126.2 960.785 1123.56 960.032 1120.73 959.336L1121.69 955.452ZM1145.69 964.91C1150.55 967.83 1154.99 971.288 1159.38 975.413L1156.64 978.327C1152.42 974.364 1148.21 971.09 1143.63 968.34L1145.69 964.91ZM1171.05 987.864C1174.41 991.797 1177.93 996.156 1181.76 1000.99L1178.62 1003.47C1174.81 998.654 1171.32 994.339 1168.01 990.461L1171.05 987.864ZM1192.19 1014.25C1193.86 1016.38 1195.6 1018.59 1197.41 1020.88L1194.27 1023.36C1192.46 1021.07 1190.72 1018.86 1189.04 1016.72L1192.19 1014.25Z" fill="#0D6032"/>
</svg>
